<svg xmlns="http://www.w3.org/2000/svg" width="960" height="600" viewBox="0 0 960 600">
<rect width="960" height="600" fill="white"/>
<text x="60" y="45" font-family="sans-serif" font-size="24">Health decision error near adequacy</text>
<path d="M80 80 V500 H900" fill="none" stroke="#333"/>
<circle cx="80.0" cy="500.0" r="5" fill="#267078" fill-opacity=".7"/>
<circle cx="625.6556037537252" cy="271.42857142857144" r="5" fill="#267078" fill-opacity=".7"/>
<circle cx="669.3212071927846" cy="322.22222222222223" r="5" fill="#267078" fill-opacity=".7"/>
<circle cx="696.1127205184262" cy="100.0" r="5" fill="#267078" fill-opacity=".7"/>
<circle cx="709.8553988050581" cy="366.6666666666667" r="5" fill="#267078" fill-opacity=".7"/>
<circle cx="738.0079249350568" cy="340.0" r="5" fill="#267078" fill-opacity=".7"/>
<circle cx="766.2919376333255" cy="300.0" r="5" fill="#267078" fill-opacity=".7"/>
<circle cx="880.0" cy="500.0" r="5" fill="#267078" fill-opacity=".7"/>
<circle cx="80.0" cy="500.0" r="5" fill="#c35335" fill-opacity=".7"/>
<circle cx="627.1071532408562" cy="209.09090909090907" r="5" fill="#c35335" fill-opacity=".7"/>
<circle cx="668.9094832279219" cy="300.0" r="5" fill="#c35335" fill-opacity=".7"/>
<circle cx="694.9193220337722" cy="100.0" r="5" fill="#c35335" fill-opacity=".7"/>
<circle cx="709.6451184811914" cy="411.1111111111111" r="5" fill="#c35335" fill-opacity=".7"/>
<circle cx="737.4653752649593" cy="376.9230769230769" r="5" fill="#c35335" fill-opacity=".7"/>
<circle cx="768.3854950834329" cy="340.0" r="5" fill="#c35335" fill-opacity=".7"/>
<circle cx="821.2646963082954" cy="500.0" r="5" fill="#c35335" fill-opacity=".7"/>
<text x="80" y="523" text-anchor="middle" font-family="sans-serif" font-size="13">-0.645</text>
<text x="70" y="505" text-anchor="end" font-family="sans-serif" font-size="13">0</text>
<text x="280" y="523" text-anchor="middle" font-family="sans-serif" font-size="13">-0.438</text>
<text x="70" y="405" text-anchor="end" font-family="sans-serif" font-size="13">0.25</text>
<text x="480" y="523" text-anchor="middle" font-family="sans-serif" font-size="13">-0.23</text>
<text x="70" y="305" text-anchor="end" font-family="sans-serif" font-size="13">0.5</text>
<text x="680" y="523" text-anchor="middle" font-family="sans-serif" font-size="13">-0.0231</text>
<text x="70" y="205" text-anchor="end" font-family="sans-serif" font-size="13">0.75</text>
<text x="880" y="523" text-anchor="middle" font-family="sans-serif" font-size="13">0.184</text>
<text x="70" y="105" text-anchor="end" font-family="sans-serif" font-size="13">1</text>
<text x="470" y="550" text-anchor="middle" font-family="sans-serif">mean_margin</text>
<text x="85" y="70" font-family="sans-serif">error</text>
<rect x="630" y="82" width="10" height="10" fill="#267078"/>
<text x="646" y="91" font-family="sans-serif" font-size="11">Q1</text>
<rect x="630" y="99" width="10" height="10" fill="#c35335"/>
<text x="646" y="108" font-family="sans-serif" font-size="11">Q2</text>
<text x="60" y="580" font-family="sans-serif" font-size="12">Exact data/strata and caption: H04-1.csv / H04-1.json</text></svg>
